{
  "accessors": [
    {
      "bufferView": 2,
      "componentType": 5126,
      "count": 65532,
      "max": [
        48.039642333984375,
        -2.1196439266204834,
        20.817771911621094
      ],
      "min": [
        -60.35675048828125,
        -15.295676231384277,
        -59.09630584716797
      ],
      "type": "VEC3"
    },
    {
      "bufferView": 2,
      "byteOffset": 786384,
      "componentType": 5126,
      "count": 65532,
      "max": [
        0.9999995231628418,
        0.9999991059303284,
        0.999939501285553
      ],
      "min": [
        -0.9999052286148071,
        -0.9999998807907104,
        -0.9995744824409485
      ],
      "type": "VEC3"
    },
    {
      "bufferView": 1,
      "componentType": 5126,
      "count": 65532,
      "max": [
        0.9994819760322571,
        0.9996010065078735
      ],
      "min": [
        0.00028899998869746923,
        0.0001610000035725534
      ],
      "type": "VEC2"
    },
    {
      "bufferView": 0,
      "componentType": 5125,
      "count": 246006,
      "type": "SCALAR"
    },
    {
      "bufferView": 2,
      "byteOffset": 1572768,
      "componentType": 5126,
      "count": 65532,
      "max": [
        48.04365539550781,
        -2.3857669830322266,
        21.985553741455078
      ],
      "min": [
        -58.977317810058594,
        -31.981855392456055,
        -54.12165832519531
      ],
      "type": "VEC3"
    },
    {
      "bufferView": 2,
      "byteOffset": 2359152,
      "componentType": 5126,
      "count": 65532,
      "max": [
        0.9999997019767761,
        0.9999989867210388,
        0.999993622303009
      ],
      "min": [
        -0.9999838471412659,
        -0.9999996423721313,
        -0.9999162554740906
      ],
      "type": "VEC3"
    },
    {
      "bufferView": 1,
      "byteOffset": 524256,
      "componentType": 5126,
      "count": 65532,
      "max": [
        0.9995949864387512,
        0.9998660087585449
      ],
      "min": [
        5.900000178371556e-05,
        0.00012799999967683107
      ],
      "type": "VEC2"
    },
    {
      "bufferView": 0,
      "byteOffset": 984024,
      "componentType": 5125,
      "count": 228726,
      "type": "SCALAR"
    },
    {
      "bufferView": 2,
      "byteOffset": 3145536,
      "componentType": 5126,
      "count": 65532,
      "max": [
        47.516197204589844,
        -4.5113630294799805,
        20.28079605102539
      ],
      "min": [
        -62.96129608154297,
        -31.84928321838379,
        -64.76929473876953
      ],
      "type": "VEC3"
    },
    {
      "bufferView": 2,
      "byteOffset": 3931920,
      "componentType": 5126,
      "count": 65532,
      "max": [
        0.9999859929084778,
        0.9999876022338867,
        0.9999979138374329
      ],
      "min": [
        -0.9999805688858032,
        -0.9999999403953552,
        -0.9999978542327881
      ],
      "type": "VEC3"
    },
    {
      "bufferView": 1,
      "byteOffset": 1048512,
      "componentType": 5126,
      "count": 65532,
      "max": [
        0.9998379945755005,
        0.9999859929084778
      ],
      "min": [
        3.999999989900971e-06,
        0.00013899999612476677
      ],
      "type": "VEC2"
    },
    {
      "bufferView": 0,
      "byteOffset": 1898928,
      "componentType": 5125,
      "count": 216588,
      "type": "SCALAR"
    },
    {
      "bufferView": 2,
      "byteOffset": 4718304,
      "componentType": 5126,
      "count": 65532,
      "max": [
        29.35199737548828,
        -1.0901007652282715,
        68.96451568603516
      ],
      "min": [
        -62.99562454223633,
        -32.03255844116211,
        -66.64029693603516
      ],
      "type": "VEC3"
    },
    {
      "bufferView": 2,
      "byteOffset": 5504688,
      "componentType": 5126,
      "count": 65532,
      "max": [
        0.9999989867210388,
        0.9999855756759644,
        0.9997824430465698
      ],
      "min": [
        -0.9999993443489075,
        -0.9999998807907104,
        -0.9999970197677612
      ],
      "type": "VEC3"
    },
    {
      "bufferView": 1,
      "byteOffset": 1572768,
      "componentType": 5126,
      "count": 65532,
      "max": [
        1.0,
        0.9999909996986389
      ],
      "min": [
        0.00016399999731220305,
        3.7000001611886546e-05
      ],
      "type": "VEC2"
    },
    {
      "bufferView": 0,
      "byteOffset": 2765280,
      "componentType": 5125,
      "count": 225822,
      "type": "SCALAR"
    },
    {
      "bufferView": 2,
      "byteOffset": 6291072,
      "componentType": 5126,
      "count": 65532,
      "max": [
        -18.45610237121582,
        -2.380034923553467,
        73.36990356445313
      ],
      "min": [
        -62.990013122558594,
        -34.051048278808594,
        -49.47296905517578
      ],
      "type": "VEC3"
    },
    {
      "bufferView": 2,
      "byteOffset": 7077456,
      "componentType": 5126,
      "count": 65532,
      "max": [
        0.9999919533729553,
        0.9999973773956299,
        0.9995236992835999
      ],
      "min": [
        -0.9999995231628418,
        -1.0,
        -0.9999978542327881
      ],
      "type": "VEC3"
    },
    {
      "bufferView": 1,
      "byteOffset": 2097024,
      "componentType": 5126,
      "count": 65532,
      "max": [
        0.9998670220375061,
        0.9999780058860779
      ],
      "min": [
        9.999999974752427e-07,
        4.400000034365803e-05
      ],
      "type": "VEC2"
    },
    {
      "bufferView": 0,
      "byteOffset": 3668568,
      "componentType": 5125,
      "count": 228669,
      "type": "SCALAR"
    },
    {
      "bufferView": 2,
      "byteOffset": 7863840,
      "componentType": 5126,
      "count": 65532,
      "max": [
        18.109073638916016,
        -1.484288215637207,
        45.479835510253906
      ],
      "min": [
        -58.63905334472656,
        -32.031341552734375,
        -70.86182403564453
      ],
      "type": "VEC3"
    },
    {
      "bufferView": 2,
      "byteOffset": 8650224,
      "componentType": 5126,
      "count": 65532,
      "max": [
        0.9999980926513672,
        0.9999973773956299,
        0.9999907612800598
      ],
      "min": [
        -0.9999990463256836,
        -0.9999982714653015,
        -0.9999851584434509
      ],
      "type": "VEC3"
    },
    {
      "bufferView": 1,
      "byteOffset": 2621280,
      "componentType": 5126,
      "count": 65532,
      "max": [
        0.9998670220375061,
        0.9999939799308777
      ],
      "min": [
        3.999999989900971e-06,
        3.899999865097925e-05
      ],
      "type": "VEC2"
    },
    {
      "bufferView": 0,
      "byteOffset": 4583244,
      "componentType": 5125,
      "count": 213513,
      "type": "SCALAR"
    },
    {
      "bufferView": 2,
      "byteOffset": 9436608,
      "componentType": 5126,
      "count": 65532,
      "max": [
        34.475852966308594,
        -1.4111590385437012,
        57.92584991455078
      ],
      "min": [
        -62.987098693847656,
        -26.04290008544922,
        -71.2852554321289
      ],
      "type": "VEC3"
    },
    {
      "bufferView": 2,
      "byteOffset": 10222992,
      "componentType": 5126,
      "count": 65532,
      "max": [
        0.9999896287918091,
        0.9999920725822449,
        0.9999113082885742
      ],
      "min": [
        -0.9999868273735046,
        -1.0,
        -0.9999620318412781
      ],
      "type": "VEC3"
    },
    {
      "bufferView": 1,
      "byteOffset": 3145536,
      "componentType": 5126,
      "count": 65532,
      "max": [
        0.9998739957809448,
        0.9998739957809448
      ],
      "min": [
        2.4000000848900527e-05,
        5.999999848427251e-05
      ],
      "type": "VEC2"
    },
    {
      "bufferView": 0,
      "byteOffset": 5437296,
      "componentType": 5125,
      "count": 202779,
      "type": "SCALAR"
    },
    {
      "bufferView": 2,
      "byteOffset": 11009376,
      "componentType": 5126,
      "count": 65532,
      "max": [
        39.13935852050781,
        -1.5171332359313965,
        53.062782287597656
      ],
      "min": [
        -62.980377197265625,
        -24.74128532409668,
        -78.14588165283203
      ],
      "type": "VEC3"
    },
    {
      "bufferView": 2,
      "byteOffset": 11795760,
      "componentType": 5126,
      "count": 65532,
      "max": [
        0.9999953508377075,
        0.9999967217445374,
        0.9999119639396667
      ],
      "min": [
        -0.9999991059303284,
        -1.0,
        -0.9999797940254211
      ],
      "type": "VEC3"
    },
    {
      "bufferView": 1,
      "byteOffset": 3669792,
      "componentType": 5126,
      "count": 65532,
      "max": [
        0.9998639822006226,
        0.9999920129776001
      ],
      "min": [
        6.000000212225132e-06,
        3.5000000934815034e-05
      ],
      "type": "VEC2"
    },
    {
      "bufferView": 0,
      "byteOffset": 6248412,
      "componentType": 5125,
      "count": 209394,
      "type": "SCALAR"
    },
    {
      "bufferView": 2,
      "byteOffset": 12582144,
      "componentType": 5126,
      "count": 65533,
      "max": [
        41.45827102661133,
        -1.2255730628967285,
        71.71006774902344
      ],
      "min": [
        -62.995033264160156,
        -31.541908264160156,
        -63.219486236572266
      ],
      "type": "VEC3"
    },
    {
      "bufferView": 2,
      "byteOffset": 13368540,
      "componentType": 5126,
      "count": 65533,
      "max": [
        0.9999998807907104,
        0.9999998211860657,
        0.9999712705612183
      ],
      "min": [
        -0.9999998211860657,
        -0.9999996423721313,
        -0.9999844431877136
      ],
      "type": "VEC3"
    },
    {
      "bufferView": 1,
      "byteOffset": 4194048,
      "componentType": 5126,
      "count": 65533,
      "max": [
        0.999871015548706,
        0.9999790191650391
      ],
      "min": [
        3.999999989900971e-06,
        1.9999999949504854e-06
      ],
      "type": "VEC2"
    },
    {
      "bufferView": 0,
      "byteOffset": 7085988,
      "componentType": 5125,
      "count": 207456,
      "type": "SCALAR"
    },
    {
      "bufferView": 2,
      "byteOffset": 14154936,
      "componentType": 5126,
      "count": 65532,
      "max": [
        48.03935241699219,
        -3.112842082977295,
        -7.004112243652344
      ],
      "min": [
        -23.71254539489746,
        -33.84959411621094,
        -64.01383209228516
      ],
      "type": "VEC3"
    },
    {
      "bufferView": 2,
      "byteOffset": 14941320,
      "componentType": 5126,
      "count": 65532,
      "max": [
        0.9999994039535522,
        0.9999979138374329,
        0.9999640583992004
      ],
      "min": [
        -0.9999804496765137,
        -0.9999995827674866,
        -0.9999505281448364
      ],
      "type": "VEC3"
    },
    {
      "bufferView": 1,
      "byteOffset": 4718312,
      "componentType": 5126,
      "count": 65532,
      "max": [
        0.9998329877853394,
        0.9999769926071167
      ],
      "min": [
        1.1000000085914508e-05,
        2.9000000722589903e-05
      ],
      "type": "VEC2"
    },
    {
      "bufferView": 0,
      "byteOffset": 7915812,
      "componentType": 5125,
      "count": 216039,
      "type": "SCALAR"
    },
    {
      "bufferView": 2,
      "byteOffset": 15727704,
      "componentType": 5126,
      "count": 65532,
      "max": [
        48.03779220581055,
        -2.050295114517212,
        40.11833190917969
      ],
      "min": [
        -62.30701446533203,
        -32.462730407714844,
        -26.817907333374023
      ],
      "type": "VEC3"
    },
    {
      "bufferView": 2,
      "byteOffset": 16514088,
      "componentType": 5126,
      "count": 65532,
      "max": [
        0.9999995231628418,
        0.9999991059303284,
        0.9999628067016602
      ],
      "min": [
        -0.9999987483024597,
        -0.9999994039535522,
        -0.9996920824050903
      ],
      "type": "VEC3"
    },
    {
      "bufferView": 1,
      "byteOffset": 5242568,
      "componentType": 5126,
      "count": 65532,
      "max": [
        0.9997209906578064,
        0.9998760223388672
      ],
      "min": [
        0.00026599998818710446,
        0.00017899999511428177
      ],
      "type": "VEC2"
    },
    {
      "bufferView": 0,
      "byteOffset": 8779968,
      "componentType": 5125,
      "count": 211743,
      "type": "SCALAR"
    },
    {
      "bufferView": 2,
      "byteOffset": 17300472,
      "componentType": 5126,
      "count": 64357,
      "max": [
        43.254249572753906,
        -4.134570121765137,
        -6.918018341064453
      ],
      "min": [
        -54.660213470458984,
        -34.31476593017578,
        -59.89890670776367
      ],
      "type": "VEC3"
    },
    {
      "bufferView": 2,
      "byteOffset": 18072756,
      "componentType": 5126,
      "count": 64357,
      "max": [
        0.9999980926513672,
        0.9999948740005493,
        0.9999933838844299
      ],
      "min": [
        -0.9999800324440002,
        -0.9999979138374329,
        -0.9999427199363708
      ],
      "type": "VEC3"
    },
    {
      "bufferView": 1,
      "byteOffset": 5766824,
      "componentType": 5126,
      "count": 64357,
      "max": [
        0.9998720288276672,
        0.9999849796295166
      ],
      "min": [
        1.700000029813964e-05,
        6.000000212225132e-06
      ],
      "type": "VEC2"
    },
    {
      "bufferView": 0,
      "byteOffset": 9626940,
      "componentType": 5125,
      "count": 202662,
      "type": "SCALAR"
    }
  ],
  "asset": {
    "extras": {
      "author": "Katie Wolfe (https://sketchfab.com/katiewolfe)",
      "license": "CC-BY-4.0 (http://creativecommons.org/licenses/by/4.0/)",
      "source": "https://sketchfab.com/3d-models/penn-station-aee7c1431f64499bb07e36467c6f2100",
      "title": "Penn Station"
    },
    "generator": "Sketchfab-11.41.0",
    "version": "2.0"
  },
  "bufferViews": [
    {
      "buffer": 0,
      "byteLength": 10437588,
      "name": "floatBufferViews",
      "target": 34963
    },
    {
      "buffer": 0,
      "byteLength": 6281680,
      "byteOffset": 10437588,
      "byteStride": 8,
      "name": "floatBufferViews",
      "target": 34962
    },
    {
      "buffer": 0,
      "byteLength": 18845040,
      "byteOffset": 16719268,
      "byteStride": 12,
      "name": "floatBufferViews",
      "target": 34962
    }
  ],
  "buffers": [
    {
      "byteLength": 35564308,
      "uri": "scene.bin"
    }
  ],
  "images": [
    {
      "uri": "textures/penn_station-reality_capture-1mil-metashape_uvs_u1_v1_baseColor.jpeg"
    }
  ],
  "materials": [
    {
      "name": "penn_station-reality_capture-1mil-metashape_uvs_u1_v1",
      "pbrMetallicRoughness": {
        "baseColorTexture": {
          "index": 0
        },
        "metallicFactor": 0.0
      }
    }
  ],
  "meshes": [
    {
      "name": "Object_0",
      "primitives": [
        {
          "attributes": {
            "NORMAL": 1,
            "POSITION": 0,
            "TEXCOORD_0": 2
          },
          "indices": 3,
          "material": 0,
          "mode": 4
        }
      ]
    },
    {
      "name": "Object_1",
      "primitives": [
        {
          "attributes": {
            "NORMAL": 5,
            "POSITION": 4,
            "TEXCOORD_0": 6
          },
          "indices": 7,
          "material": 0,
          "mode": 4
        }
      ]
    },
    {
      "name": "Object_2",
      "primitives": [
        {
          "attributes": {
            "NORMAL": 9,
            "POSITION": 8,
            "TEXCOORD_0": 10
          },
          "indices": 11,
          "material": 0,
          "mode": 4
        }
      ]
    },
    {
      "name": "Object_3",
      "primitives": [
        {
          "attributes": {
            "NORMAL": 13,
            "POSITION": 12,
            "TEXCOORD_0": 14
          },
          "indices": 15,
          "material": 0,
          "mode": 4
        }
      ]
    },
    {
      "name": "Object_4",
      "primitives": [
        {
          "attributes": {
            "NORMAL": 17,
            "POSITION": 16,
            "TEXCOORD_0": 18
          },
          "indices": 19,
          "material": 0,
          "mode": 4
        }
      ]
    },
    {
      "name": "Object_5",
      "primitives": [
        {
          "attributes": {
            "NORMAL": 21,
            "POSITION": 20,
            "TEXCOORD_0": 22
          },
          "indices": 23,
          "material": 0,
          "mode": 4
        }
      ]
    },
    {
      "name": "Object_6",
      "primitives": [
        {
          "attributes": {
            "NORMAL": 25,
            "POSITION": 24,
            "TEXCOORD_0": 26
          },
          "indices": 27,
          "material": 0,
          "mode": 4
        }
      ]
    },
    {
      "name": "Object_7",
      "primitives": [
        {
          "attributes": {
            "NORMAL": 29,
            "POSITION": 28,
            "TEXCOORD_0": 30
          },
          "indices": 31,
          "material": 0,
          "mode": 4
        }
      ]
    },
    {
      "name": "Object_8",
      "primitives": [
        {
          "attributes": {
            "NORMAL": 33,
            "POSITION": 32,
            "TEXCOORD_0": 34
          },
          "indices": 35,
          "material": 0,
          "mode": 4
        }
      ]
    },
    {
      "name": "Object_9",
      "primitives": [
        {
          "attributes": {
            "NORMAL": 37,
            "POSITION": 36,
            "TEXCOORD_0": 38
          },
          "indices": 39,
          "material": 0,
          "mode": 4
        }
      ]
    },
    {
      "name": "Object_10",
      "primitives": [
        {
          "attributes": {
            "NORMAL": 41,
            "POSITION": 40,
            "TEXCOORD_0": 42
          },
          "indices": 43,
          "material": 0,
          "mode": 4
        }
      ]
    },
    {
      "name": "Object_11",
      "primitives": [
        {
          "attributes": {
            "NORMAL": 45,
            "POSITION": 44,
            "TEXCOORD_0": 46
          },
          "indices": 47,
          "material": 0,
          "mode": 4
        }
      ]
    }
  ],
  "nodes": [
    {
      "children": [
        1
      ],
      "matrix": [
        1.1102230246251565e-15,
        -8.881784197001252e-16,
        1.0,
        0.0,
        4.440892098500626e-16,
        -1.0,
        -1.5543122344752192e-15,
        0.0,
        1.0,
        1.1102230246251565e-15,
        -4.4408920985006237e-16,
        0.0,
        -5.0879669189453125,
        -20.090478897094734,
        25.178445816040036,
        1.0
      ],
      "name": "Sketchfab_model"
    },
    {
      "children": [
        2,
        3,
        4,
        5,
        6,
        7,
        8,
        9,
        10,
        11,
        12,
        13
      ],
      "name": "penn_station-reality_capture-1mil-metashape_uvs.obj.cleaner.materialmerger.gles"
    },
    {
      "mesh": 0,
      "name": "Object_2"
    },
    {
      "mesh": 1,
      "name": "Object_3"
    },
    {
      "mesh": 2,
      "name": "Object_4"
    },
    {
      "mesh": 3,
      "name": "Object_5"
    },
    {
      "mesh": 4,
      "name": "Object_6"
    },
    {
      "mesh": 5,
      "name": "Object_7"
    },
    {
      "mesh": 6,
      "name": "Object_8"
    },
    {
      "mesh": 7,
      "name": "Object_9"
    },
    {
      "mesh": 8,
      "name": "Object_10"
    },
    {
      "mesh": 9,
      "name": "Object_11"
    },
    {
      "mesh": 10,
      "name": "Object_12"
    },
    {
      "mesh": 11,
      "name": "Object_13"
    }
  ],
  "samplers": [
    {
      "magFilter": 9729,
      "minFilter": 9987,
      "wrapS": 10497,
      "wrapT": 10497
    }
  ],
  "scene": 0,
  "scenes": [
    {
      "name": "Sketchfab_Scene",
      "nodes": [
        0
      ]
    }
  ],
  "textures": [
    {
      "sampler": 0,
      "source": 0
    }
  ]
}
